<svg width="104" height="48" viewBox="0 0 104 48" fill="none" xmlns="http://www.w3.org/2000/svg">
<g clip-path="url(#clip0_7787_36990)">
<path fill-rule="evenodd" clip-rule="evenodd" d="M38.5408 19.2704C38.5408 29.9131 29.9131 38.5408 19.2704 38.5408C8.62765 38.5408 0 29.9131 0 19.2704C0 8.62765 8.62765 0 19.2704 0C29.9131 0 38.5408 8.62765 38.5408 19.2704ZM35.1693 27.6329C35.676 26.6924 36.0995 25.6879 36.4175 24.6508C30.4086 28.6493 22.4858 29.9286 14.7652 26.9568C14.7548 26.9568 14.7429 26.9464 14.7429 26.9464C13.3789 26.4071 12.2466 25.3907 11.5275 24.1114C11.4859 24.0475 11.4428 23.9732 11.4116 23.8989C7.53044 16.7176 8.28082 8.73102 12.0668 2.8291C10.6612 3.44277 9.33877 4.23623 8.15452 5.18719C8.15303 5.18868 8.15117 5.19017 8.14932 5.19165C8.14746 5.19314 8.1456 5.19462 8.14412 5.19611C5.0728 11.4264 6.75631 20.3878 10.5825 25.0965C6.51262 22.5913 3.72065 18.9524 1.83803 14.9584C1.62555 15.78 1.47994 16.6359 1.40565 17.5007C1.34175 18.0921 1.31055 18.6849 1.31055 19.2882C1.31055 28.1946 7.81574 35.5987 16.3194 37.0059C8.94055 33.6775 4.07725 27.4903 3.03417 20.0416C12.6389 32.7652 24.0044 33.7785 32.3135 31.6314C33.4442 30.4472 34.4071 29.0935 35.1693 27.6329ZM21.9732 16.4191C21.9732 15.7638 21.7934 15.1814 21.4234 14.6732C20.8841 15.171 20.2392 15.5306 19.52 15.7208C19.5356 15.7363 19.5515 15.7497 19.5675 15.763L19.5675 15.763L19.5675 15.763L19.5675 15.7631L19.5675 15.7631L19.5676 15.7631C19.5835 15.7765 19.5995 15.7898 19.6151 15.8054C19.7949 15.9644 19.8796 16.1754 19.8796 16.4191C19.8796 16.6524 19.7741 16.8738 19.6151 17.0224C19.4561 17.2126 19.2555 17.2973 19.0119 17.2973H17.098V15.9005H14.9821V23.2735H19.0015C19.8157 23.2735 20.5245 22.9778 21.1069 22.3953C21.6894 21.8129 21.9747 21.1041 21.9747 20.2794C21.9747 19.5291 21.7414 18.905 21.2659 18.3433C21.7414 17.7846 21.9732 17.1606 21.9732 16.4191ZM19.6151 20.8827C19.4561 21.0417 19.2555 21.1472 19.0119 21.1472H17.098V19.4013H19.0119C19.2555 19.4013 19.4561 19.4756 19.6151 19.6658C19.7741 19.8248 19.8796 20.0358 19.8796 20.2794C19.8796 20.5127 19.7949 20.7237 19.6151 20.8827ZM26.6181 19.6317L23.6017 20.5544L27.4606 13.4192L32.8023 23.2989H30.306L28.5809 20.1473L28.0609 19.1904L26.6181 19.6317ZM22.1188 23.2988H24.6151L25.887 20.9675L22.884 21.8843L22.1188 23.2988ZM14.2674 7.33437C14.2674 8.98668 15.6077 10.3269 17.26 10.3269L18.2733 10.3299C18.7592 10.3344 19.1441 10.7192 19.1441 11.2006C19.1441 11.6865 18.7592 12.0714 18.2733 12.0773H14.9761V14.1991H18.2733C19.9256 14.1991 21.2659 12.8589 21.2659 11.2066C21.2659 9.55428 19.9256 8.21402 18.2733 8.21402L17.26 8.21104C16.7741 8.20659 16.3892 7.82175 16.3892 7.34032C16.3892 6.85444 16.7741 6.46959 17.26 6.46365H20.575V4.34181H17.26C15.6077 4.34181 14.2674 5.68207 14.2674 7.33437ZM23.6017 11.4561L26.6181 10.5334L28.0609 10.0921L28.5809 11.0475L30.306 14.1991H32.8023L27.4606 4.32094L23.6017 11.4561ZM24.6151 14.1991H22.1188L22.884 12.7845L25.887 11.8692L24.6151 14.1991Z" fill="#3B3A3C"/>
<path d="M45.0283 31.5597C43.9701 31.5597 43.0929 31.1838 42.355 30.4458C41.617 29.7079 41.255 28.8168 41.255 27.7586C41.255 26.7004 41.617 25.8093 42.355 25.0714C43.0929 24.3335 43.9701 23.9575 45.0283 23.9575H49.2192V26.6308H45.0283C44.708 26.6308 44.4713 26.7283 44.2486 26.951C44.0119 27.1877 43.9283 27.4105 43.9283 27.7447C43.9283 28.0788 44.0258 28.3016 44.2486 28.5383C44.4853 28.775 44.708 28.8586 45.0283 28.8586H46.3649C47.4231 28.8586 48.3003 29.2345 49.0382 29.9724C49.7761 30.7104 50.1381 31.6015 50.1381 32.6596C50.1381 33.7178 49.7761 34.6089 49.0382 35.3468C48.3003 36.0848 47.4231 36.4607 46.3649 36.4607H42.174V33.7735H46.3649C46.6852 33.7735 46.9218 33.676 47.1446 33.4533C47.3813 33.2166 47.4648 32.9938 47.4648 32.6596C47.4648 32.3255 47.3674 32.1027 47.1446 31.866C46.9079 31.6293 46.6852 31.5458 46.3649 31.5458H45.0283V31.5597Z" fill="#3B3A3C"/>
<path d="M54.0228 31.5597V36.4746H51.3912V23.9854H56.4594C57.5175 23.9854 58.3947 24.3613 59.1327 25.0992C59.8706 25.8372 60.2326 26.7283 60.2326 27.7864C60.2326 28.8446 59.8706 29.7357 59.1327 30.4736C58.3947 31.2116 57.5175 31.5457 56.4594 31.5457H54.0228V31.5597ZM54.0228 26.6865V28.9142H56.4733C56.7935 28.9142 57.0302 28.8168 57.253 28.594C57.4897 28.3573 57.5732 28.1345 57.5732 27.8004C57.5732 27.4662 57.4758 27.2434 57.253 27.0067C57.0163 26.77 56.7935 26.6865 56.4733 26.6865H54.0228Z" fill="#3B3A3C"/>
<path d="M77.7622 31.5597V36.4746H75.0889V23.9854H80.157C81.2151 23.9854 82.0923 24.3613 82.8302 25.0992C83.5682 25.8372 83.9302 26.7283 83.9302 27.7864C83.9302 28.8446 83.5682 29.7357 82.8302 30.4736C82.5518 30.7521 82.2316 31.0306 81.8695 31.1698L84.4036 36.4607H81.4518L79.1963 31.5457L77.7622 31.5597ZM77.7622 26.6865V28.9142H80.2126C80.5329 28.9142 80.7696 28.8168 80.9924 28.594C81.2291 28.3573 81.3126 28.1345 81.3126 27.8004C81.3126 27.4662 81.2151 27.2434 80.9924 27.0067C80.7557 26.77 80.5329 26.6865 80.2126 26.6865H77.7622Z" fill="#3B3A3C"/>
<path d="M90.5299 26.6726V36.4746H87.8566V26.6726H85.1833V23.9854H93.1614V26.6726H90.5299Z" fill="#3B3A3C"/>
<path d="M98.1877 31.5597C97.1296 31.5597 96.2524 31.1838 95.5145 30.4458C94.7765 29.7079 94.4145 28.8168 94.4145 27.7586C94.4145 26.7004 94.7765 25.8093 95.5145 25.0714C96.2524 24.3335 97.1296 23.9575 98.1877 23.9575H102.379V26.6308H98.1877C97.8675 26.6308 97.6308 26.7283 97.408 26.951C97.1713 27.1877 97.0878 27.4105 97.0878 27.7447C97.0878 28.0788 97.1852 28.3016 97.408 28.5383C97.6447 28.775 97.8675 28.8586 98.1877 28.8586H99.5244C100.583 28.8586 101.46 29.2345 102.198 29.9724C102.936 30.7104 103.298 31.6015 103.298 32.6596C103.298 33.7178 102.936 34.6089 102.198 35.3468C101.46 36.0848 100.583 36.4607 99.5244 36.4607H95.3334V33.7735H99.5244C99.8446 33.7735 100.081 33.676 100.304 33.4533C100.527 33.2166 100.624 32.9938 100.624 32.6596C100.624 32.3255 100.527 32.1027 100.304 31.866C100.067 31.6293 99.8446 31.5458 99.5244 31.5458H98.1877V31.5597Z" fill="#3B3A3C"/>
<path d="M61.4857 30.6684C61.4578 30.1672 61.4717 29.6659 61.5692 29.1647L64.0476 29.9305C63.9919 30.4735 64.0615 31.0304 64.2564 31.5317L61.4857 30.6684ZM65.8855 36.2517C63.8944 35.6391 62.4325 34.1353 61.8198 32.3114L66.6373 33.7873C68.5866 34.386 70.6194 33.2999 71.2181 31.3507C71.8029 29.4153 70.7308 27.3686 68.7815 26.7699L63.964 25.294C65.4956 24.1244 67.5563 23.6928 69.5473 24.3054C72.8472 25.3079 74.699 28.8027 73.6965 32.1025C72.694 35.4024 69.1853 37.2542 65.8855 36.2517ZM64.4792 28.5242L62.0009 27.7584C62.1958 27.285 62.4603 26.8534 62.7666 26.4635L65.5513 27.3129C65.1197 27.6331 64.7577 28.0369 64.4792 28.5242Z" fill="#3B3A3C"/>
<path d="M84.3479 7.40244C84.3479 5.9544 83.8467 4.7013 82.8163 3.68489C81.7999 2.66849 80.5607 2.15332 79.1266 2.15332H72.0814V19.4183H79.1266C80.5468 19.4183 81.7999 18.9032 82.8163 17.8867C83.8327 16.8703 84.3479 15.6172 84.3479 14.1692C84.3479 12.8743 83.9302 11.7744 83.0948 10.7858C83.9302 9.79726 84.3479 8.69731 84.3479 7.40244ZM80.2126 15.2274C79.9342 15.5058 79.5722 15.7008 79.1545 15.7008H75.7989V12.6376H79.1545C79.5722 12.6376 79.9342 12.7769 80.2126 13.111C80.4911 13.3895 80.6721 13.7654 80.6721 14.1831C80.6721 14.6008 80.5329 14.9489 80.2126 15.2274ZM75.7989 5.88479H79.1545C79.5722 5.88479 79.9342 6.07971 80.2126 6.35818C80.5329 6.63665 80.6721 6.99866 80.6721 7.41636C80.6721 7.83406 80.4911 8.20999 80.2126 8.48846C79.9342 8.82262 79.5722 8.96186 79.1545 8.96186H75.7989V5.88479Z" fill="#E13C29"/>
<path d="M46.4902 12.6376C43.5941 12.6376 41.2411 10.2846 41.2411 7.38852C41.2411 4.49245 43.5941 2.1394 46.4902 2.1394H52.2962V5.85695H46.4902C45.6409 5.87087 44.9586 6.53919 44.9586 7.38852C44.9586 8.23784 45.6269 8.90617 46.4902 8.92009H48.2724C51.1685 8.92009 53.5215 11.2731 53.5215 14.1692C53.5215 17.0653 51.1685 19.4183 48.2724 19.4183H42.4942V15.7008H48.2724C49.1217 15.6869 49.804 15.0185 49.804 14.1692C49.804 13.3199 49.1356 12.6516 48.2724 12.6376H46.4902Z" fill="#E13C29"/>
<path d="M56.2505 14.6148L61.5414 12.9997L64.0615 12.22L64.9665 13.8908L68.0018 19.4183H72.3738L63.0172 2.11157L56.2505 14.6148Z" fill="#E13C29"/>
<path d="M53.6468 19.4184H58.0327L60.2604 15.3389L54.9974 16.9401L53.6468 19.4184Z" fill="#E13C29"/>
<path d="M87.1882 14.6148L92.4652 12.9997L94.9993 12.22L95.9043 13.8908L98.9257 19.4183H103.298L93.9411 2.11157L87.1882 14.6148Z" fill="#E13C29"/>
<path d="M84.5846 19.4184H88.9565L91.1843 15.3389L85.9212 16.9401L84.5846 19.4184Z" fill="#E13C29"/>
<path d="M0.604652 41.9675H2L1.76744 43.5602H4.74419L4.97675 41.9675H6.3721L5.76745 46.4645H4.3721L4.60465 44.7313H1.62791L1.39535 46.4176H0L0.604652 41.9675Z" fill="#E13C29"/>
<path d="M13.1626 44.1691C13.023 45.2464 12.7905 45.9023 12.5114 46.1365C12.1858 46.3707 11.3486 46.4644 9.90675 46.4644C8.8835 46.4644 8.18582 46.4175 7.86024 46.3707C7.48815 46.277 7.25559 46.0428 7.16256 45.7617C7.11605 45.5275 7.16256 45.0122 7.25559 44.2159C7.39512 43.1385 7.62768 42.4827 7.90675 42.2485C8.23233 42.0143 9.06954 41.8737 10.5114 41.8737C11.9068 41.8737 12.744 42.0143 13.023 42.2016C13.3021 42.4359 13.3021 43.0917 13.1626 44.1691ZM8.65094 44.1691C8.55791 44.7312 8.60443 45.0591 8.69745 45.1528C8.83698 45.2465 9.25559 45.2933 10.0463 45.2933C10.837 45.2933 11.3021 45.2465 11.4416 45.1528C11.5812 45.0591 11.6742 44.7312 11.7672 44.1691C11.8602 43.6069 11.8137 43.2322 11.7207 43.1385C11.5812 43.0448 11.1626 42.998 10.3719 42.998C9.58117 42.998 9.11605 43.0448 8.97652 43.1385C8.83698 43.279 8.74396 43.6069 8.65094 44.1691ZM10.2788 40L11.6742 41.1242L11.3486 41.5927L9.62768 40.9837L10.2788 40Z" fill="#E13C29"/>
<path d="M16.3259 41.9675H18.698L20.2793 46.4645H18.698L18.3724 45.715H15.6747L15.1631 46.4645H13.4886L16.3259 41.9675ZM17.4421 42.9512H17.2096L16.2793 44.5439H17.9538L17.4421 42.9512Z" fill="#E13C29"/>
<path d="M27.349 45.2465H27.442H27.4885L29.6281 41.9207H31.163L28.2792 46.4176H26.1862L24.6048 41.9675H26.1397L27.349 45.2465Z" fill="#E13C29"/>
<path d="M33.6743 41.9674H36.0464L37.6278 46.4644H36.0464L35.7208 45.7149H33.0231L32.5115 46.4644H30.9301L33.6743 41.9674ZM34.6045 40L35.9999 41.1242L35.6743 41.5927L33.9534 40.9837L34.6045 40ZM34.7906 42.9511H34.558L33.5813 44.497H35.2557L34.7906 42.9511Z" fill="#E13C29"/>
<path d="M44.6046 44.1691C44.4651 45.2465 44.2325 45.9023 43.9535 46.1365C43.6279 46.3707 42.7907 46.4644 41.3488 46.4644C40.3255 46.4644 39.6279 46.4176 39.3023 46.3707C38.9302 46.277 38.6976 46.0428 38.6046 45.7618C38.5581 45.5276 38.6046 45.0123 38.6976 44.2159C38.8372 43.1385 39.0697 42.4827 39.3488 42.2485C39.6744 42.0143 40.5116 41.8738 41.9535 41.8738C43.3488 41.8738 44.186 42.0143 44.4651 42.2017C44.6976 42.4359 44.7442 43.0917 44.6046 44.1691ZM40.093 44.1691C40 44.7781 40 45.106 40.1395 45.1997C40.279 45.2933 40.6976 45.3402 41.4883 45.3402C42.279 45.3402 42.7442 45.2933 42.8837 45.1997C43.0232 45.106 43.1163 44.7781 43.2093 44.2159C43.3023 43.6538 43.2558 43.2791 43.1628 43.1854C43.0232 43.0917 42.6046 43.0449 41.8139 43.0449C41.0232 43.0449 40.5581 43.0917 40.4186 43.1854C40.279 43.2791 40.1395 43.607 40.093 44.1691Z" fill="#E13C29"/>
<path d="M51.6748 41.8738C52.9306 41.8738 53.7213 41.9675 54.0004 42.2017C54.2329 42.3891 54.2795 42.8575 54.1864 43.6538H52.7911C52.8376 43.3728 52.7911 43.2322 52.6516 43.1385C52.512 43.0449 52.0934 42.998 51.5353 42.998C50.8841 42.998 50.4655 43.0449 50.326 43.1385C50.1864 43.2322 50.0934 43.5601 50.0004 44.1223C49.9074 44.6844 49.9539 45.0123 50.0469 45.106C50.1399 45.1996 50.512 45.2465 51.2097 45.2465C51.8143 45.2465 52.1864 45.1997 52.3725 45.1528C52.512 45.0591 52.6516 44.9186 52.6516 44.6375H54.0469C53.9539 45.4339 53.7213 45.9491 53.4888 46.0897C53.1632 46.3239 52.3725 46.4176 51.0702 46.4176C49.7678 46.4176 49.0236 46.277 48.7911 46.0897C48.5585 45.8555 48.512 45.1997 48.6515 44.1223C48.7911 43.0449 49.0236 42.3891 49.3027 42.2017C49.6283 42.0143 50.419 41.8738 51.6748 41.8738Z" fill="#E13C29"/>
<path d="M61.07 41.9675L60.6979 44.6844C60.6049 45.4808 60.3258 45.9961 59.9537 46.2303C59.6282 46.4176 58.8375 46.5113 57.5817 46.5113C56.3723 46.5113 55.6282 46.4176 55.3026 46.2303C54.977 45.9961 54.884 45.5276 54.977 44.6844L55.3491 41.9675H56.7444L56.3723 44.6844C56.3258 44.9655 56.3723 45.1529 56.5119 45.1997C56.6979 45.2934 57.07 45.3402 57.7212 45.3402C58.3723 45.3402 58.7444 45.2934 58.9305 45.1997C59.1165 45.106 59.2096 44.9187 59.2561 44.6844L59.6282 41.9675H61.07Z" fill="#E13C29"/>
<path d="M67.721 44.1691C67.5815 45.2465 67.3489 45.9023 67.0699 46.1365C66.7443 46.3708 65.9071 46.4644 64.4652 46.4644C63.442 46.4644 62.7443 46.4176 62.4187 46.3708C62.0466 46.2771 61.8141 46.0429 61.721 45.7618C61.6745 45.5276 61.721 45.0123 61.8141 44.216C61.9536 43.1386 62.1862 42.4828 62.4652 42.2485C62.7908 42.0143 63.628 41.8738 65.0699 41.8738C66.4652 41.8738 67.3024 42.0143 67.5815 42.2017C67.8141 42.4359 67.8606 43.0917 67.721 44.1691ZM63.1629 44.1691C63.0699 44.7312 63.1164 45.0591 63.2094 45.1528C63.3489 45.2465 63.7676 45.2934 64.5582 45.2934C65.3489 45.2934 65.8141 45.2465 65.9536 45.1528C66.0931 45.0591 66.1862 44.7312 66.2792 44.1691C66.3722 43.607 66.3257 43.2323 66.2327 43.1386C66.0931 43.0449 65.6745 42.998 64.8838 42.998C64.0931 42.998 63.628 43.0449 63.4885 43.1386C63.3955 43.2791 63.2559 43.607 63.1629 44.1691ZM63.628 41.3117L65.3024 40.4685L66.7443 41.3117L66.5117 41.7333L65.1629 41.3585L63.721 41.7333L63.628 41.3117ZM63.9071 46.7455H64.9303L64.7908 47.6824H63.7676L63.9071 46.7455Z" fill="#E13C29"/>
<path d="M71.5816 41.8738C72.8374 41.8738 73.6281 41.9675 73.9072 42.2017C74.1397 42.3891 74.1863 42.8575 74.0932 43.6538H72.6979C72.7444 43.3728 72.6979 43.2322 72.5584 43.1385C72.4188 43.0449 72.0002 42.998 71.4421 42.998C70.7909 42.998 70.3723 43.0449 70.2328 43.1385C70.0932 43.2322 70.0002 43.5601 69.9072 44.1223C69.8142 44.6844 69.8607 45.0123 69.9537 45.106C70.0467 45.1996 70.4188 45.2465 71.1165 45.2465C71.7211 45.2465 72.0932 45.1997 72.2793 45.1528C72.4188 45.0591 72.5584 44.9186 72.5584 44.6375H73.9537C73.8607 45.4339 73.6281 45.9491 73.3956 46.0897C73.07 46.3239 72.2793 46.4176 70.977 46.4176C69.6746 46.4176 68.9304 46.277 68.6979 46.0897C68.4653 45.8555 68.4188 45.1997 68.5583 44.1223C68.6979 43.0449 68.9304 42.3891 69.2095 42.2017C69.4886 42.0143 70.2793 41.8738 71.5816 41.8738Z" fill="#E13C29"/>
<path d="M81.07 41.8738C82.3259 41.8738 83.1166 41.9675 83.3956 42.2017C83.6282 42.3891 83.6747 42.8575 83.5817 43.6538H82.1863C82.2328 43.3728 82.1863 43.2322 82.0468 43.1385C81.9073 43.0449 81.4886 42.998 80.9305 42.998C80.2793 42.998 79.8607 43.0449 79.7212 43.1385C79.5817 43.2322 79.4886 43.5601 79.3956 44.1223C79.3026 44.6844 79.3491 45.0123 79.4421 45.106C79.5352 45.1996 79.9072 45.2465 80.6049 45.2465C81.2096 45.2465 81.5817 45.1997 81.7677 45.1528C81.9073 45.0591 82.0468 44.9186 82.0468 44.6375H83.4421C83.3491 45.4339 83.1166 45.9491 82.884 46.0897C82.5584 46.3239 81.7677 46.4176 80.4654 46.4176C79.1631 46.4176 78.4189 46.277 78.1863 46.0897C77.9538 45.8555 77.9072 45.1997 78.0468 44.1223C78.1863 43.0449 78.4189 42.3891 78.6979 42.2017C79.0235 42.0143 79.8142 41.8738 81.07 41.8738Z" fill="#E13C29"/>
<path d="M84.7442 41.9675H86.1395L85.907 43.5602H88.8837L89.1163 41.9675H90.5116L89.907 46.4645H88.5116L88.7442 44.7313H85.7674L85.5349 46.4645H84.1395L84.7442 41.9675Z" fill="#E13C29"/>
<path d="M97.3026 44.169C97.163 45.2464 96.9305 45.9022 96.6514 46.1364C96.3258 46.3706 95.4886 46.4643 94.0468 46.4643C93.0235 46.4643 92.3258 46.4174 92.0003 46.3706C91.6282 46.2769 91.3956 46.0427 91.3026 45.7616C91.2561 45.5274 91.3026 45.0121 91.3956 44.2158C91.5351 43.1384 91.7677 42.4826 92.0468 42.2484C92.3723 42.0142 93.2096 41.8736 94.6514 41.8736C96.0468 41.8736 96.884 42.0142 97.163 42.2015C97.3956 42.4358 97.4421 43.0916 97.3026 44.169ZM92.7444 44.169C92.6514 44.7311 92.6979 45.059 92.791 45.1527C92.9305 45.2464 93.3491 45.2932 94.1398 45.2932C94.9305 45.2932 95.3956 45.2464 95.5351 45.1527C95.6747 45.059 95.7677 44.7311 95.8607 44.169C95.9537 43.6068 95.9072 43.2321 95.8142 43.1384C95.6747 43.0447 95.2561 42.9979 94.4654 42.9979C93.6747 42.9979 93.2096 43.0447 93.07 43.1384C92.977 43.2789 92.8375 43.6068 92.7444 44.169ZM96.3258 43.0447L96.2328 42.2484L96.5584 41.9673L97.2561 41.3115L98.0003 42.2015L97.3026 42.8105L97.2561 43.0447H96.3258Z" fill="#E13C29"/>
<path d="M97.814 46.4176L98.4187 41.9207H99.814L99.2094 46.4176H97.814Z" fill="#E13C29"/>
<path d="M102.233 45.3402H103.581L103.442 46.5113H102.047L102.233 45.3402ZM102.326 44.8249L102.744 41.8738H104L103.581 44.8249H102.326Z" fill="#E13C29"/>
</g>
<defs>
<clipPath id="clip0_7787_36990">
<rect width="104" height="48" fill="white"/>
</clipPath>
</defs>
</svg>
